HIERARCHY
ROOT Hips
{
	OFFSET 0.000000 0.000000 0.000000 
	CHANNELS 6 Xposition Yposition Zposition Zrotation Yrotation Xrotation
	JOINT LeftUpLeg
	{
		OFFSET 1.363060 -1.794630 0.839290 
		CHANNELS 3 Zrotation Yrotation Xrotation
		JOINT LeftLeg
		{
			OFFSET 2.448110 -6.726130 0.000000 
			CHANNELS 3 Zrotation Yrotation Xrotation
			JOINT LeftFoot
			{
				OFFSET 2.562200 -7.039590 0.000000 
				CHANNELS 3 Zrotation Yrotation Xrotation
				JOINT LeftToeBase
				{
					OFFSET 0.157640 -0.433110 2.322550 
					CHANNELS 3 Zrotation Yrotation Xrotation
					End Site
					{
						OFFSET 0.000000 0.000000 0.000000 
					}
				}
			}
		}
	}
	JOINT RightUpLeg
	{
		OFFSET -1.305520 -1.794630 0.839290 
		CHANNELS 3 Zrotation Yrotation Xrotation
		JOINT RightLeg
		{
			OFFSET -2.542530 -6.985550 0.000000 
			CHANNELS 3 Zrotation Yrotation Xrotation
			JOINT RightFoot
			{
				OFFSET -2.568260 -7.056230 0.000000 
				CHANNELS 3 Zrotation Yrotation Xrotation
				JOINT RightToeBase
				{
					OFFSET -0.164730 -0.452590 2.363150 
					CHANNELS 3 Zrotation Yrotation Xrotation
					End Site
					{
						OFFSET 0.000000 0.000000 0.000000 
					}
				}
			}
		}
	}
	JOINT Spine
	{
		OFFSET 0.028270 2.035590 -0.193380 
		CHANNELS 3 Zrotation Yrotation Xrotation
		JOINT Spine1
		{
			OFFSET 0.056720 2.048850 -0.042750 
			CHANNELS 3 Zrotation Yrotation Xrotation
			JOINT Neck1
			{
				OFFSET -0.054170 1.746240 0.172020 
				CHANNELS 3 Zrotation Yrotation Xrotation
				JOINT Head
				{
					OFFSET 0.104070 1.761360 -0.123970 
					CHANNELS 3 Zrotation Yrotation Xrotation
					End Site
					{
						OFFSET 0.000000 0.000000 0.000000 
					}
				}
			}
			JOINT LeftArm
			{
				OFFSET 3.362410 1.200890 -0.311210 
				CHANNELS 3 Zrotation Yrotation Xrotation
				JOINT LeftForeArm
				{
					OFFSET 4.983000 -0.000000 -0.000000 
					CHANNELS 3 Zrotation Yrotation Xrotation
					JOINT LeftHand
					{
						OFFSET 3.483560 -0.000000 -0.000000 
						CHANNELS 3 Zrotation Yrotation Xrotation
						JOINT LeftHandIndex1
						{
							OFFSET 0.715260 -0.000000 -0.000000 
							CHANNELS 3 Zrotation Yrotation Xrotation
							End Site
							{
								OFFSET 0.000000 0.000000 0.000000 
							}
						}
					}
				}
			}
			JOINT RightArm
			{
				OFFSET -3.136600 1.374050 -0.404650 
				CHANNELS 3 Zrotation Yrotation Xrotation
				JOINT RightForeArm
				{
					OFFSET -5.241900 -0.000000 -0.000000 
					CHANNELS 3 Zrotation Yrotation Xrotation
					JOINT RightHand
					{
						OFFSET -3.444170 -0.000000 -0.000000 
						CHANNELS 3 Zrotation Yrotation Xrotation
						JOINT RightHandIndex1
						{
							OFFSET -0.622530 -0.000000 -0.000000 
							CHANNELS 3 Zrotation Yrotation Xrotation
							End Site
							{
								OFFSET 0.000000 0.000000 0.000000 
							}
						}
					}
				}
			}
		}
	}
}
MOTION
Frames: 18
Frame Time: 0.041667
-0.809601 17.670168 0.048899 4.184117 -6.038141 7.529979 -10.408841 -5.799014 -0.036150 -3.596654 10.106073 18.044986 -5.622622 22.727459 -18.652474 0.267800 -3.328700 -9.195200 0.119037 -13.487680 -7.632974 -0.719426 -13.347676 27.763277 2.377543 -14.147494 -10.619290 -1.260500 7.116900 -20.062300 -3.886155 1.427931 -4.119163 -0.792922 -0.604339 15.244624 10.029871 -6.577790 16.887938 6.363400 -3.585500 -2.120400 -58.562718 -20.358820 -37.631424 26.317825 -25.359330 -11.317403 -1.938520 3.548569 -6.609819 -7.125000 0.000000 0.000000 68.992457 21.447016 -41.476201 -19.035190 24.355567 -6.095304 -1.270329 -1.384931 4.818444 7.125000 0.000000 0.000000 
-0.810407 17.671681 0.049302 4.219447 -6.059616 7.542821 -10.414757 -5.826193 -0.100868 -3.595152 10.126656 18.067609 -5.694579 22.950281 -18.577336 0.299900 -3.521500 -9.734100 0.096397 -13.430274 -7.571465 -0.715653 -13.332024 27.733070 2.324879 -13.911287 -10.573618 -1.285900 7.185700 -20.266700 -3.873250 1.398245 -4.009114 -0.817170 -0.650182 15.400505 9.454635 -6.434050 16.721318 6.053200 -3.472100 -2.226000 -58.401273 -20.556629 -37.846654 26.192191 -25.182747 -11.247998 -1.936410 3.551953 -6.422636 -7.125000 0.000000 0.000000 68.840401 21.752449 -41.940214 -18.935834 24.128326 -6.012326 -1.282849 -1.335745 5.086635 7.125000 0.000000 0.000000 
-0.810508 17.671681 0.048697 4.244968 -6.099627 7.533444 -10.445175 -5.857616 -0.088855 -3.601179 10.133062 18.060538 -5.718289 23.039273 -18.596198 0.279800 -3.402200 -9.400600 0.068591 -13.402003 -7.567577 -0.721016 -13.321732 27.735738 2.284863 -13.725760 -10.478867 -1.288600 7.193000 -20.288400 -3.864618 1.363596 -3.934597 -0.864501 -0.694021 15.491434 8.853194 -6.335150 16.629227 5.739600 -3.384800 -2.295900 -58.350236 -20.582635 -37.872445 26.187421 -25.152639 -11.215496 -1.960314 3.539067 -6.279001 -7.125000 0.000000 0.000000 68.816085 21.909693 -41.969765 -18.944512 24.113766 -6.006238 -1.282956 -1.332619 5.037905 7.125000 0.000000 0.000000 
-0.809198 17.670975 0.047084 4.252398 -6.171570 7.525036 -10.458945 -5.859144 -0.087865 -3.606839 10.138565 18.076900 -5.658967 22.870557 -18.748619 0.245400 -3.187600 -8.801400 0.057340 -13.347852 -7.583333 -0.721664 -13.311140 27.724056 2.261634 -13.618026 -10.351984 -1.301700 7.227900 -20.392300 -3.874482 1.360755 -3.902352 -0.920490 -0.713714 15.529679 8.423456 -6.269710 16.552484 5.514400 -3.325600 -2.350800 -58.304458 -20.551209 -37.787959 26.174442 -25.143324 -11.184388 -1.984515 3.525933 -6.129775 -7.125000 0.000000 0.000000 68.853422 21.934301 -41.812440 -18.979647 24.176395 -6.025149 -1.279800 -1.344058 4.853241 7.125000 0.000000 0.000000 
-0.807383 17.669967 0.046580 4.239461 -6.181247 7.513863 -10.445556 -5.816652 -0.096484 -3.602582 10.139972 18.087840 -5.627729 22.763913 -18.732799 0.238600 -3.143900 -8.679500 0.067485 -13.345146 -7.553149 -0.719213 -13.311506 27.717289 2.216173 -13.416065 -10.320457 -1.257500 7.109000 -20.038600 -3.859515 1.332975 -3.936584 -0.962681 -0.733849 15.486447 8.118834 -6.216050 16.568999 5.355100 -3.282600 -2.360200 -58.335555 -20.490681 -37.750057 26.173474 -25.160267 -11.190920 -1.982908 3.527354 -6.042536 -7.125000 0.000000 0.000000 68.882107 21.838729 -41.673990 -18.992133 24.222652 -6.033587 -1.276970 -1.348749 4.744168 7.125000 0.000000 0.000000 
-0.806475 17.669059 0.046882 4.264001 -6.179922 7.493799 -10.481492 -5.809413 -0.089282 -3.599299 10.154461 18.094276 -5.695843 22.976311 -18.580225 0.286400 -3.441900 -9.511500 0.043854 -13.245294 -7.458710 -0.714824 -13.310502 27.705338 2.210493 -13.395509 -10.278246 -1.231500 7.037600 -19.826800 -3.860569 1.300747 -4.030966 -0.999906 -0.754279 15.369577 7.874847 -6.156138 16.618720 5.223200 -3.242900 -2.363100 -58.409291 -20.330195 -37.705293 26.199698 -25.239604 -11.255018 -1.958581 3.537202 -6.068089 -7.125000 0.000000 0.000000 69.035081 21.667413 -41.448961 -19.082290 24.374955 -6.074725 -1.266544 -1.362153 4.583937 7.125000 0.000000 0.000000 
-0.805568 17.669563 0.045672 4.259513 -6.212176 7.491408 -10.490853 -5.836588 -0.073805 -3.603149 10.150829 18.074355 -5.734704 23.107491 -18.583570 0.305100 -3.551200 -9.817300 0.037818 -13.197329 -7.453145 -0.716228 -13.311999 27.712591 2.203941 -13.366079 -10.190733 -1.200200 6.950800 -19.569800 -3.872446 1.289830 -4.077545 -1.047216 -0.763421 15.315297 7.699836 -6.137564 16.653692 5.130800 -3.226600 -2.359700 -58.398881 -20.232374 -37.715500 26.218521 -25.296889 -11.323046 -1.940582 3.540474 -6.139862 -7.125000 0.000000 0.000000 69.168381 21.580532 -41.225994 -19.167279 24.511990 -6.111350 -1.261205 -1.367401 4.396057 7.125000 0.000000 0.000000 
-0.804560 17.670672 0.042749 4.267249 -6.244867 7.505759 -10.501045 -5.844800 -0.050087 -3.619207 10.109830 17.971423 -5.696812 22.995439 -18.677193 0.261400 -3.289000 -9.084300 0.010563 -13.256260 -7.539809 -0.737061 -13.321635 27.789637 2.178723 -13.239586 -10.175113 -1.138700 6.776600 -19.055300 -3.877069 1.292147 -4.026162 -1.051128 -0.767531 15.374560 7.627754 -6.161990 16.707954 5.095100 -3.234300 -2.319700 -58.267715 -20.311213 -37.813834 26.174950 -25.245079 -11.333722 -1.932073 3.540527 -6.255379 -7.125000 0.000000 0.000000 69.113370 21.669395 -41.173462 -19.171989 24.512080 -6.109004 -1.263537 -1.362633 4.326472 7.125000 0.000000 0.000000 
-0.803148 17.664926 0.041337 4.275170 -6.240205 7.506274 -10.528328 -5.753789 0.065873 -3.637100 10.054284 17.882533 -5.376642 21.995533 -18.971161 0.114700 -2.184000 -6.014500 -0.017049 -13.409073 -7.646051 -0.765953 -13.340331 27.897453 2.152319 -13.106451 -10.189986 -1.085400 6.621500 -18.598700 -3.892878 1.284417 -3.976739 -1.062232 -0.771987 15.428889 7.687232 -6.186733 16.778885 5.119800 -3.248800 -2.266600 -58.151952 -20.415276 -38.040630 26.141604 -25.156056 -11.297683 -1.932080 3.535490 -6.173610 -7.125000 0.000000 0.000000 69.105275 21.730920 -41.100197 -19.188064 24.532168 -6.115849 -1.265824 -1.361598 4.288504 7.125000 0.000000 0.000000 
-0.802342 17.653230 0.041942 4.324716 -6.287449 7.489839 -10.621260 -5.549760 0.240502 -3.653378 10.007680 17.829482 -4.822415 20.262709 -19.402824 0.001500 -0.249400 -0.685300 -0.098813 -13.506275 -7.706972 -0.799560 -13.354351 28.014492 2.109239 -12.894158 -10.198572 -1.015700 6.411800 -17.984100 -3.901586 1.305622 -3.945257 -1.024244 -0.763325 15.481233 7.772367 -6.188887 16.838943 5.161000 -3.252800 -2.223000 -58.104331 -20.491730 -38.246165 26.097759 -25.063347 -11.248102 -1.940560 3.530734 -6.037600 -7.125000 0.000000 0.000000 69.047446 21.714035 -41.022743 -19.159422 24.518836 -6.118286 -1.271374 -1.367161 4.216070 7.125000 0.000000 0.000000 
-0.798107 17.648693 0.046681 4.348689 -6.363258 7.466128 -10.736293 -5.704770 0.489521 -3.691429 9.960359 17.726329 -4.549061 19.469207 -19.881979 0.032700 1.167000 3.208500 -0.177966 -13.727798 -7.803860 -0.837624 -13.361437 28.120171 2.050719 -12.611977 -10.123050 -0.995800 6.350700 -17.805400 -3.868289 1.328155 -3.869772 -0.960750 -0.755363 15.609995 7.799425 -6.175816 16.816846 5.184100 -3.245800 -2.229700 -58.134658 -20.555962 -38.412446 26.048241 -24.978624 -11.203428 -1.947932 3.531927 -5.936088 -7.125000 0.000000 0.000000 68.875906 21.795774 -41.110566 -19.112977 24.443975 -6.100390 -1.273883 -1.368155 4.267961 7.125000 0.000000 0.000000 
-0.796192 17.652524 0.048798 4.357357 -6.417488 7.465403 -10.770995 -5.892674 0.592583 -3.720546 9.920673 17.615225 -4.579953 19.616422 -20.102703 0.036300 1.229300 3.379900 -0.210087 -13.851196 -7.897292 -0.861439 -13.367543 28.191445 2.028061 -12.497711 -10.048451 -1.014200 6.407300 -17.971000 -3.870675 1.336897 -3.815014 -0.955189 -0.758727 15.697905 7.698450 -6.195522 16.807780 5.140900 -3.250900 -2.233100 -58.076294 -20.591165 -38.506257 26.003001 -24.912350 -11.167188 -1.951783 3.529315 -5.818690 -7.125000 0.000000 0.000000 68.790264 21.914303 -41.177446 -19.104408 24.405019 -6.085950 -1.269721 -1.369949 4.314012 7.125000 0.000000 0.000000 
-0.795788 17.654440 0.044261 4.338372 -6.456641 7.489828 -10.733572 -5.830693 0.552369 -3.716133 9.908651 17.595343 -4.565468 19.552318 -20.069338 0.028200 1.083500 2.978600 -0.192549 -13.837845 -7.951579 -0.864299 -13.370175 28.208454 2.019827 -12.456613 -10.013638 -1.018300 6.419800 -18.007500 -3.899744 1.329264 -3.815266 -1.012570 -0.769745 15.682937 7.524192 -6.218362 16.875568 5.047600 -3.254300 -2.193800 -57.920973 -20.671199 -38.681164 25.977527 -24.840769 -11.137339 -1.953489 3.520931 -5.609874 -7.125000 0.000000 0.000000 68.801704 22.034892 -41.211412 -19.082693 24.366289 -6.079108 -1.271700 -1.375326 4.349490 7.125000 0.000000 0.000000 
-0.792562 17.652827 0.041740 4.284665 -6.492125 7.508948 -10.702950 -5.753732 0.542217 -3.705916 9.901954 17.596265 -4.564907 19.528554 -19.974921 0.024600 1.011700 2.781000 -0.169598 -14.030970 -8.073343 -0.875182 -13.366525 28.220790 1.968280 -12.217947 -9.895039 -1.021700 6.430300 -18.038300 -3.920020 1.350296 -3.814143 -1.051802 -0.753423 15.667992 7.629368 -6.254926 16.933537 5.097500 -3.277800 -2.149600 -57.865475 -20.744533 -38.782675 26.013978 -24.839535 -11.143585 -1.959045 3.514025 -5.515853 -7.125000 0.000000 0.000000 68.781189 22.106457 -41.244106 -19.064762 24.346708 -6.100608 -1.274406 -1.403567 4.226746 7.125000 0.000000 0.000000 
-0.791050 17.651617 0.042547 4.293136 -6.512267 7.500251 -10.725521 -5.696701 0.543146 -3.705324 9.898013 17.574562 -4.625744 19.725324 -19.919591 0.004000 0.410800 1.128700 -0.197024 -14.112273 -8.120096 -0.885921 -13.361148 28.237548 1.949993 -12.128844 -9.846769 -1.039000 6.482900 -18.192200 -3.943469 1.371541 -3.728881 -1.047693 -0.742981 15.765601 7.764357 -6.297728 16.978693 5.162900 -3.303900 -2.100900 -57.798956 -20.850922 -38.866120 26.036230 -24.825709 -11.151023 -1.961520 3.510831 -5.519984 -7.125000 0.000000 0.000000 68.718112 22.258270 -41.423249 -19.066206 24.308784 -6.116166 -1.279136 -1.415366 4.306029 7.125000 0.000000 0.000000 
-0.792764 17.650105 0.044967 4.327733 -6.522687 7.474431 -10.763528 -5.764088 0.599979 -3.719568 9.891042 17.551104 -4.574631 19.598297 -20.107120 0.006200 0.509000 1.398700 -0.211423 -13.964038 -8.054906 -0.882289 -13.370386 28.251625 1.989186 -12.308602 -9.898462 -1.066500 6.565300 -18.433800 -3.948786 1.367309 -3.688627 -1.032066 -0.751471 15.806928 7.747281 -6.269503 16.878510 5.150200 -3.286100 -2.153200 -57.764663 -20.864171 -38.930969 26.056437 -24.832324 -11.162883 -1.960003 3.507575 -5.553403 -7.125000 0.000000 0.000000 68.740985 22.284664 -41.499653 -19.106137 24.337522 -6.130082 -1.281513 -1.407202 4.395803 7.125000 0.000000 0.000000 
-0.793973 17.650105 0.044463 4.341671 -6.521551 7.460129 -10.757078 -5.757847 0.594288 -3.720645 9.887243 17.543128 -4.541069 19.489620 -20.130915 0.016400 0.825600 2.269100 -0.199337 -13.691227 -7.926201 -0.864856 -13.387345 28.249359 2.026254 -12.485124 -10.053302 -1.052200 6.522800 -18.309000 -3.923739 1.363243 -3.720366 -0.992806 -0.748728 15.755008 7.820477 -6.265019 16.806097 5.194400 -3.287700 -2.196700 -57.838855 -20.775077 -38.844728 26.121260 -24.925873 -11.213001 -1.962720 3.504663 -5.675136 -7.125000 0.000000 0.000000 68.754798 22.202043 -41.394218 -19.124881 24.388447 -6.148126 -1.280418 -1.413812 4.239381 7.125000 0.000000 0.000000 
-0.795486 17.651415 0.040833 4.342658 -6.501545 7.494317 -10.714620 -5.677074 0.517303 -3.711134 9.880972 17.531072 -4.548867 19.473950 -19.973972 0.016100 0.819000 2.250800 -0.182727 -13.611109 -7.929641 -0.860403 -13.391130 28.251811 2.038149 -12.538867 -10.092813 -1.042900 6.494700 -18.226800 -3.909598 1.357254 -3.736060 -0.960313 -0.747271 15.737017 7.924033 -6.288353 16.828191 5.249200 -3.304400 -2.176400 -57.875434 -20.751078 -38.739002 26.182127 -25.007249 -11.264455 -1.958066 3.506456 -5.796135 -7.125000 0.000000 0.000000 68.754824 22.190369 -41.279494 -19.139386 24.425607 -6.163493 -1.276734 -1.428542 4.060038 7.125000 0.000000 0.000000 
